<?xml version="1.0" encoding="UTF-8"?>
<svg width="18px" height="20px" viewBox="0 0 18 20" version="1.1" xmlns="http://www.w3.org/2000/svg" xmlns:xlink="http://www.w3.org/1999/xlink">
    <!-- Generator: Sketch 51 (57462) - http://www.bohemiancoding.com/sketch -->
    <title>Chicago Star</title>
    <g id="chicago-star" stroke="none" stroke-width="1" fill-rule="evenodd">
        <path d="M9.30208404,0.4275 L10.728084,5.7445 C10.812084,6.0565 11.134084,6.2425 11.447084,6.1585 L16.760084,4.7335 C17.330084,4.5805 17.735084,5.2815 17.317084,5.6985 L13.431084,9.5855 C13.202084,9.8145 13.202084,10.1855 13.431084,10.4145 L17.317084,14.3005 C17.735084,14.7185 17.330084,15.4195 16.760084,15.2665 L11.447084,13.8415 C11.134084,13.7575 10.812084,13.9425 10.728084,14.2555 L9.30208404,19.5725 C9.14908404,20.1425 8.34008404,20.1425 8.18708404,19.5725 L6.76008404,14.2555 C6.67708404,13.9425 6.35508404,13.7575 6.04208404,13.8415 L0.729084044,15.2665 C0.159084044,15.4195 -0.245915956,14.7185 0.172084044,14.3005 L4.05808404,10.4145 C4.28708404,10.1855 4.28708404,9.8145 4.05808404,9.5855 L0.172084044,5.6985 C-0.245915956,5.2815 0.159084044,4.5805 0.729084044,4.7335 L6.04208404,6.1585 C6.35508404,6.2425 6.67708404,6.0565 6.76008404,5.7445 L8.18708404,0.4275 C8.34008404,-0.1425 9.14908404,-0.1425 9.30208404,0.4275" id="Fill-1" fill="#000000"></path>
    </g>
</svg>