<svg xmlns="http://www.w3.org/2000/svg"><symbol id="icon-arrow-large" viewBox="0 0 99.5 99.5"><path id="Vector" d="M99.5 11.4v76.8c0 6.3-5.1 11.4-11.4 11.4-1.8 0-3.5-.4-5.1-1.2L6.3 59.9c-5.6-2.8-7.9-9.6-5.1-15.2 1.1-2.2 2.9-4 5.1-5.1L83.1 1.2c5.6-2.8 12.4-.5 15.2 5.1.8 1.6 1.2 3.3 1.2 5.1z"/></symbol><symbol id="icon-arrow" viewBox="0 0 20 20"><title>Arrow</title><g id="99-Elements/Icons/20x20/Arrow/00-Green-Dark" fill-rule="evenodd"><path d="M5.236 0h13.528a2 2 0 0 1 1.789 2.894l-6.764 13.528a2 2 0 0 1-3.578 0L3.447 2.894A2 2 0 0 1 5.237 0z" id="Vector" transform="rotate(-90 12 10)"/></g></symbol><symbol id="icon-checkmark" viewBox="0 0 20 20"><title>Checkmark</title><g id="99-Elements/Icons/20x20/Checkmark" fill-rule="evenodd"><path id="Path-2" fill-rule="nonzero" d="M18.293 2.293l1.414 1.414L5 18.414.293 13.707l1.414-1.414L5 15.586z"/></g></symbol><symbol id="icon-close" viewBox="0 0 20 20"><title>Close</title><g id="99-Elements/Icons/20x20/Close/00-Green-Dark" fill-rule="evenodd"><path d="M10 8.586L18.293.293l1.414 1.414L11.414 10l8.293 8.293-1.414 1.414L10 11.414l-8.293 8.293-1.414-1.414L8.586 10 .293 1.707 1.707.293 10 8.586z" id="Shape" fill-rule="nonzero"/></g></symbol><symbol id="icon-contract" viewBox="0 0 20 20"><title>Contract</title><g id="99-Elements/Icons/20x20/Contract" fill-rule="evenodd"><path id="Shape" d="M0 9h20v2H0z"/></g></symbol><symbol id="icon-downloadable" viewBox="0 0 20 20"><title>Downloadable</title><g id="99-Elements/Icons/20x20/Downloadable/00-Green-Dark" fill-rule="evenodd"><path d="M11 10.586l3.293-3.293 1.414 1.414L10 14.414 4.293 8.707l1.414-1.414L9 10.586 9.001 0h2v10.586zM2 18h16v-8h2v10H0V10h2v8z" id="Combined-Shape"/></g></symbol><symbol id="icon-expand" viewBox="0 0 20 20"><title>Expand</title><g id="99-Elements/Icons/20x20/Expand" fill-rule="evenodd"><path d="M9 9V0h2v9h9v2h-9v9H9v-9H0V9h9z" id="Shape"/></g></symbol><symbol id="icon-facebook" viewBox="0 0 20 20"><title>Facebook</title><g id="99-Elements/Icons/30x30/Facebook/00-Green-Dark" fill-rule="evenodd"><path d="M18.896 0H1.104C.494 0 0 .494 0 1.104v17.792C0 19.506.494 20 1.104 20h9.579v-7.745H8.076V9.237h2.607V7.01c0-2.584 1.577-3.99 3.882-3.99 1.104 0 2.052.082 2.329.119v2.7h-1.598c-1.254 0-1.496.595-1.496 1.47v1.927h2.989l-.39 3.018h-2.6V20h5.097c.61 0 1.104-.494 1.104-1.104V1.104C20 .494 19.506 0 18.896 0" id="Fill-1"/></g></symbol><symbol id="icon-hamburger" viewBox="0 0 20 20"><title>Hamburger</title><g id="99-Elements/Icons/20x20/Hamburger" fill-rule="evenodd"><path d="M0 0h20v2H0V0zm0 18h20v2H0v-2zm0-9h20v2H0V9z" id="Combined-Shape"/></g></symbol><symbol id="icon-instagram" viewBox="0 0 20 20"><title>Instagram</title><g id="99-Elements/Icons/30x30/Insta/00-Green-Dark" fill-rule="evenodd"><path d="M10 0C7.284 0 6.944.011 5.877.06 4.813.109 4.085.278 3.449.525A4.899 4.899 0 0 0 1.68 1.68a4.899 4.899 0 0 0-1.154 1.77C.278 4.085.11 4.813.06 5.877.011 6.944 0 7.284 0 10s.011 3.057.06 4.123c.049 1.064.218 1.791.465 2.427a4.895 4.895 0 0 0 1.154 1.771 4.91 4.91 0 0 0 1.77 1.154c.636.247 1.364.416 2.428.465 1.067.048 1.407.06 4.123.06s3.057-.012 4.123-.06c1.064-.049 1.791-.218 2.427-.465a4.906 4.906 0 0 0 1.771-1.154 4.906 4.906 0 0 0 1.154-1.771c.247-.636.416-1.363.465-2.427.048-1.066.06-1.407.06-4.123s-.012-3.056-.06-4.123c-.049-1.064-.218-1.792-.465-2.428a4.91 4.91 0 0 0-1.154-1.77A4.895 4.895 0 0 0 16.55.525C15.914.278 15.187.11 14.123.06 13.057.011 12.716 0 10 0m0 1.802c2.67 0 2.986.01 4.041.058.974.045 1.504.207 1.857.345.467.181.8.398 1.15.748.35.35.566.682.747 1.149.137.353.301.882.345 1.857.048 1.055.058 1.371.058 4.041 0 2.67-.01 2.986-.058 4.041-.044.974-.208 1.504-.345 1.857a3.09 3.09 0 0 1-.748 1.15 3.09 3.09 0 0 1-1.149.747c-.353.137-.883.301-1.857.345-1.055.048-1.37.058-4.041.058-2.67 0-2.987-.01-4.04-.058-.976-.044-1.505-.208-1.858-.345a3.096 3.096 0 0 1-1.15-.748 3.09 3.09 0 0 1-.747-1.149c-.138-.353-.3-.883-.345-1.857-.048-1.055-.058-1.371-.058-4.041 0-2.67.01-2.986.058-4.04.045-.976.207-1.505.345-1.858.181-.467.398-.8.748-1.15.35-.35.682-.566 1.149-.747.353-.138.882-.3 1.857-.345C7.014 1.812 7.33 1.802 10 1.802zm-.198 2.865a5.136 5.136 0 1 0 0 10.27 5.136 5.136 0 0 0 0-10.27zm0 8.468a3.333 3.333 0 1 1 0-6.666 3.333 3.333 0 0 1 0 6.666zM16.4 4.533a1.2 1.2 0 1 0-2.4 0 1.2 1.2 0 0 0 2.4 0z" id="Combined-Shape"/></g></symbol><symbol id="icon-link-out" viewBox="0 0 20 20"><title>Link Out</title><g id="99-Elements/Icons/20x20/Link-Out/00-Green-Dark" fill-rule="evenodd"><path d="M14 18v-6h2v8H0V4h8v2H2v12h12z" id="Combined-Shape"/><path d="M18 3.414L6.707 14.707l-1.414-1.414L16.586 2H10V0h10v10h-2V3.414z" id="Combined-Shape" fill-rule="nonzero"/></g></symbol><symbol id="icon-radio-checked" viewBox="0 0 20 20"><title>Radio Checked</title><g id="99-Elements/Icons/20x20/Radio-Checked" fill-rule="evenodd"><circle id="Oval-3" cx="10" cy="10" r="10"/></g></symbol><symbol id="icon-search" viewBox="0 0 20 20"><title>Search</title><g id="99-Elements/Icons/20x20/Search" fill-rule="evenodd"><path d="M8 16A8 8 0 1 1 8 0a8 8 0 0 1 0 16zm0-2A6 6 0 1 0 8 2a6 6 0 0 0 0 12z" id="Combined-Shape"/><path id="Rectangle" transform="rotate(-45 15.854 15.854)" d="M14.854 11.404h2v8.899h-2z"/></g></symbol><symbol id="icon-star" viewBox="0 0 18 20"><title>Chicago Star</title><g id="chicago-star" fill-rule="evenodd"><path d="M9.302.427l1.426 5.317a.587.587 0 0 0 .72.415l5.312-1.425c.57-.154.975.548.557.965l-3.886 3.886a.586.586 0 0 0 0 .83l3.886 3.886c.418.418.013 1.118-.557.966l-5.313-1.425a.587.587 0 0 0-.719.413l-1.426 5.318c-.153.57-.962.57-1.115 0L6.76 14.255a.585.585 0 0 0-.718-.414L.73 15.268c-.57.152-.975-.548-.557-.966l3.886-3.886a.586.586 0 0 0 0-.83L.172 5.698C-.246 5.282.16 4.58.73 4.734L6.042 6.16a.586.586 0 0 0 .718-.414L8.187.428c.153-.57.962-.57 1.115 0" id="Fill-1"/></g></symbol><symbol id="icon-twitter" viewBox="0 0 20 20"><title>Twitter</title><g id="99-Elements/Icons/30x30/Twitter/00-Green-Dark" fill-rule="evenodd"><path d="M6.29 19.254c7.547 0 11.675-6.253 11.675-11.675 0-.178-.004-.354-.012-.53A8.337 8.337 0 0 0 20 4.924a8.168 8.168 0 0 1-2.356.646 4.114 4.114 0 0 0 1.804-2.27c-.793.47-1.67.813-2.605.996A4.103 4.103 0 0 0 9.85 8.039 11.651 11.651 0 0 1 1.392 3.75a4.097 4.097 0 0 0-.555 2.063 4.1 4.1 0 0 0 1.826 3.415 4.077 4.077 0 0 1-1.859-.513v.052a4.106 4.106 0 0 0 3.291 4.023 4.134 4.134 0 0 1-1.853.07 4.11 4.11 0 0 0 3.833 2.851A8.237 8.237 0 0 1 .98 17.468c-.331 0-.658-.02-.979-.057a11.618 11.618 0 0 0 6.29 1.843" id="Fill-1"/></g></symbol></svg>