<?xml version="1.0" encoding="UTF-8"?>
<svg width="20px" height="20px" viewBox="0 0 20 20" version="1.1" xmlns="http://www.w3.org/2000/svg" xmlns:xlink="http://www.w3.org/1999/xlink">
    <!-- Generator: Sketch 50.2 (55047) - http://www.bohemiancoding.com/sketch -->
    <title>Instagram</title>
    <g id="99-Elements/Icons/30x30/Insta/00-Green-Dark" stroke="none" stroke-width="1" fill-rule="evenodd">
        <path d="M10,0 C7.284,0 6.944,0.0113333333 5.87666667,0.06 C4.81266667,0.108666667 4.08533333,0.278 3.44933333,0.525333333 C2.792,0.780666667 2.23466667,1.12266667 1.67866667,1.67866667 C1.12266667,2.23466667 0.780666667,2.792 0.525333333,3.44933333 C0.278,4.08533333 0.108666667,4.81266667 0.06,5.87666667 C0.0113333333,6.944 0,7.284 0,10 C0,12.716 0.0113333333,13.0566667 0.06,14.1233333 C0.108666667,15.1873333 0.278,15.914 0.525333333,16.55 C0.780666667,17.208 1.12266667,17.7653333 1.67866667,18.3213333 C2.23466667,18.8773333 2.792,19.2193333 3.44933333,19.4753333 C4.08533333,19.722 4.81266667,19.8913333 5.87666667,19.94 C6.944,19.988 7.284,20 10,20 C12.716,20 13.0566667,19.988 14.1233333,19.94 C15.1873333,19.8913333 15.914,19.722 16.55,19.4753333 C17.208,19.2193333 17.7653333,18.8773333 18.3213333,18.3213333 C18.8773333,17.7653333 19.2193333,17.208 19.4753333,16.55 C19.722,15.914 19.8913333,15.1873333 19.94,14.1233333 C19.988,13.0566667 20,12.716 20,10 C20,7.284 19.988,6.944 19.94,5.87666667 C19.8913333,4.81266667 19.722,4.08533333 19.4753333,3.44933333 C19.2193333,2.792 18.8773333,2.23466667 18.3213333,1.67866667 C17.7653333,1.12266667 17.208,0.780666667 16.55,0.525333333 C15.914,0.278 15.1873333,0.108666667 14.1233333,0.06 C13.0566667,0.0113333333 12.716,0 10,0 M10,1.802 C12.67,1.802 12.986,1.812 14.0413333,1.86 C15.0153333,1.90466667 15.5453333,2.06733333 15.898,2.20466667 C16.3646667,2.386 16.698,2.60266667 17.0473333,2.95266667 C17.3973333,3.30266667 17.614,3.63533333 17.7953333,4.102 C17.932,4.45466667 18.096,4.984 18.14,5.95866667 C18.188,7.014 18.198,7.33 18.198,10 C18.198,12.67 18.188,12.986 18.14,14.0413333 C18.096,15.0153333 17.932,15.5453333 17.7953333,15.898 C17.614,16.3646667 17.3973333,16.698 17.0473333,17.0473333 C16.698,17.3973333 16.3646667,17.614 15.898,17.7953333 C15.5453333,17.932 15.0153333,18.096 14.0413333,18.14 C12.986,18.188 12.6706667,18.198 10,18.198 C7.33,18.198 7.01333333,18.188 5.95933333,18.14 C4.984,18.096 4.45466667,17.932 4.102,17.7953333 C3.63533333,17.614 3.30266667,17.3973333 2.95266667,17.0473333 C2.60266667,16.698 2.386,16.3646667 2.20466667,15.898 C2.06733333,15.5453333 1.90466667,15.0153333 1.86,14.0413333 C1.812,12.986 1.802,12.67 1.802,10 C1.802,7.33 1.812,7.014 1.86,5.95933333 C1.90466667,4.984 2.06733333,4.45466667 2.20466667,4.102 C2.386,3.63533333 2.60266667,3.30266667 2.95266667,2.95266667 C3.30266667,2.60266667 3.63533333,2.386 4.102,2.20466667 C4.45466667,2.06733333 4.984,1.90466667 5.95866667,1.86 C7.014,1.812 7.33,1.802 10,1.802 Z M9.802,4.66666667 C6.966,4.66666667 4.66666667,6.966 4.66666667,9.802 C4.66666667,12.638 6.966,14.9373333 9.802,14.9373333 C12.638,14.9373333 14.9373333,12.638 14.9373333,9.802 C14.9373333,6.966 12.638,4.66666667 9.802,4.66666667 Z M9.802,13.1353333 C7.96133333,13.1353333 6.46866667,11.6433333 6.46866667,9.802 C6.46866667,7.96133333 7.96133333,6.46866667 9.802,6.46866667 C11.6433333,6.46866667 13.1353333,7.96133333 13.1353333,9.802 C13.1353333,11.6433333 11.6433333,13.1353333 9.802,13.1353333 Z M16.4,4.53333333 C16.4,3.87066667 15.8626667,3.33333333 15.2,3.33333333 C14.5373333,3.33333333 14,3.87066667 14,4.53333333 C14,5.196 14.5373333,5.73333333 15.2,5.73333333 C15.8626667,5.73333333 16.4,5.196 16.4,4.53333333 Z" id="Combined-Shape" fill="#000000"></path>
    </g>
</svg>