<?xml version="1.0" encoding="UTF-8"?>
<svg width="20px" height="20px" viewBox="0 0 20 20" version="1.1" xmlns="http://www.w3.org/2000/svg" xmlns:xlink="http://www.w3.org/1999/xlink">
    <!-- Generator: Sketch 50.2 (55047) - http://www.bohemiancoding.com/sketch -->
    <title>Twitter</title>
    <g id="99-Elements/Icons/30x30/Twitter/00-Green-Dark" stroke="none" stroke-width="1" fill-rule="evenodd">
        <path d="M6.29,19.254 C13.8373333,19.254 17.9653333,13.0013333 17.9653333,7.57933333 C17.9653333,7.40133333 17.9613333,7.22466667 17.9533333,7.04866667 C18.754,6.47 19.4506667,5.74733333 20,4.924 C19.2653333,5.25066667 18.4733333,5.47133333 17.644,5.57 C18.4913333,5.062 19.1413333,4.25866667 19.448,3.3 C18.6553333,3.77 17.7773333,4.11266667 16.8426667,4.296 C16.094,3.49866667 15.0273333,3 13.8473333,3 C11.5813333,3 9.744,4.83733333 9.744,7.10266667 C9.744,7.42466667 9.77933333,7.738 9.85,8.03866667 C6.44,7.86733333 3.416,6.234 1.392,3.75133333 C1.04,4.358 0.836666667,5.062 0.836666667,5.814 C0.836666667,7.23733333 1.56133333,8.494 2.66266667,9.22933333 C1.98933333,9.20866667 1.35733333,9.02333333 0.804,8.716 C0.803333333,8.73333333 0.803333333,8.75066667 0.803333333,8.768 C0.803333333,10.756 2.218,12.4146667 4.09533333,12.7913333 C3.75066667,12.8846667 3.388,12.9353333 3.01333333,12.9353333 C2.74933333,12.9353333 2.492,12.9093333 2.242,12.8613333 C2.76466667,14.4913333 4.27933333,15.678 6.07533333,15.712 C4.67066667,16.812 2.90133333,17.468 0.979333333,17.468 C0.648,17.468 0.321333333,17.4486667 0,17.4106667 C1.81666667,18.5746667 3.97266667,19.254 6.29,19.254" id="Fill-1" fill="#000000"></path>
    </g>
</svg>