<svg width="20" height="20" viewBox="0 0 20 20" xmlns="http://www.w3.org/2000/svg"><title>Instagram</title><g id="99-Elements/Icons/30x30/Insta/00-Green-Dark" fill-rule="evenodd"><path d="M10 0C7.284 0 6.944.011 5.877.06 4.813.109 4.085.278 3.449.525A4.899 4.899 0 0 0 1.68 1.68a4.899 4.899 0 0 0-1.154 1.77C.278 4.085.11 4.813.06 5.877.011 6.944 0 7.284 0 10s.011 3.057.06 4.123c.049 1.064.218 1.791.465 2.427a4.895 4.895 0 0 0 1.154 1.771 4.91 4.91 0 0 0 1.77 1.154c.636.247 1.364.416 2.428.465 1.067.048 1.407.06 4.123.06s3.057-.012 4.123-.06c1.064-.049 1.791-.218 2.427-.465a4.906 4.906 0 0 0 1.771-1.154 4.906 4.906 0 0 0 1.154-1.771c.247-.636.416-1.363.465-2.427.048-1.066.06-1.407.06-4.123s-.012-3.056-.06-4.123c-.049-1.064-.218-1.792-.465-2.428a4.91 4.91 0 0 0-1.154-1.77A4.895 4.895 0 0 0 16.55.525C15.914.278 15.187.11 14.123.06 13.057.011 12.716 0 10 0m0 1.802c2.67 0 2.986.01 4.041.058.974.045 1.504.207 1.857.345.467.181.8.398 1.15.748.35.35.566.682.747 1.149.137.353.301.882.345 1.857.048 1.055.058 1.371.058 4.041 0 2.67-.01 2.986-.058 4.041-.044.974-.208 1.504-.345 1.857a3.09 3.09 0 0 1-.748 1.15 3.09 3.09 0 0 1-1.149.747c-.353.137-.883.301-1.857.345-1.055.048-1.37.058-4.041.058-2.67 0-2.987-.01-4.04-.058-.976-.044-1.505-.208-1.858-.345a3.096 3.096 0 0 1-1.15-.748 3.09 3.09 0 0 1-.747-1.149c-.138-.353-.3-.883-.345-1.857-.048-1.055-.058-1.371-.058-4.041 0-2.67.01-2.986.058-4.04.045-.976.207-1.505.345-1.858.181-.467.398-.8.748-1.15.35-.35.682-.566 1.149-.747.353-.138.882-.3 1.857-.345C7.014 1.812 7.33 1.802 10 1.802zm-.198 2.865a5.136 5.136 0 1 0 0 10.27 5.136 5.136 0 0 0 0-10.27zm0 8.468a3.333 3.333 0 1 1 0-6.666 3.333 3.333 0 0 1 0 6.666zM16.4 4.533a1.2 1.2 0 1 0-2.4 0 1.2 1.2 0 0 0 2.4 0z" id="Combined-Shape"/></g></svg>