<svg width="20" height="20" viewBox="0 0 20 20" xmlns="http://www.w3.org/2000/svg"><title>Twitter</title><g id="99-Elements/Icons/30x30/Twitter/00-Green-Dark" fill-rule="evenodd"><path d="M6.29 19.254c7.547 0 11.675-6.253 11.675-11.675 0-.178-.004-.354-.012-.53A8.337 8.337 0 0 0 20 4.924a8.168 8.168 0 0 1-2.356.646 4.114 4.114 0 0 0 1.804-2.27c-.793.47-1.67.813-2.605.996A4.103 4.103 0 0 0 9.85 8.039 11.651 11.651 0 0 1 1.392 3.75a4.097 4.097 0 0 0-.555 2.063 4.1 4.1 0 0 0 1.826 3.415 4.077 4.077 0 0 1-1.859-.513v.052a4.106 4.106 0 0 0 3.291 4.023 4.134 4.134 0 0 1-1.853.07 4.11 4.11 0 0 0 3.833 2.851A8.237 8.237 0 0 1 .98 17.468c-.331 0-.658-.02-.979-.057a11.618 11.618 0 0 0 6.29 1.843" id="Fill-1"/></g></svg>