<svg width="18" height="20" viewBox="0 0 18 20" xmlns="http://www.w3.org/2000/svg"><title>Chicago Star</title><g id="chicago-star" fill-rule="evenodd"><path d="M9.302.427l1.426 5.317a.587.587 0 0 0 .72.415l5.312-1.425c.57-.154.975.548.557.965l-3.886 3.886a.586.586 0 0 0 0 .83l3.886 3.886c.418.418.013 1.118-.557.966l-5.313-1.425a.587.587 0 0 0-.719.413l-1.426 5.318c-.153.57-.962.57-1.115 0L6.76 14.255a.585.585 0 0 0-.718-.414L.73 15.268c-.57.152-.975-.548-.557-.966l3.886-3.886a.586.586 0 0 0 0-.83L.172 5.698C-.246 5.282.16 4.58.73 4.734L6.042 6.16a.586.586 0 0 0 .718-.414L8.187.428c.153-.57.962-.57 1.115 0" id="Fill-1"/></g></svg>